<?xml version="1.0" standalone="no"?><!DOCTYPE svg PUBLIC "-//W3C//DTD SVG 1.1//EN" "http://www.w3.org/Graphics/SVG/1.1/DTD/svg11.dtd"><svg t="1764052607748" class="icon" viewBox="0 0 1024 1024" version="1.1" xmlns="http://www.w3.org/2000/svg" p-id="19092" width="24" height="24" xmlns:xlink="http://www.w3.org/1999/xlink"><path d="M117.333333 117.333333V298.666667a32 32 0 0 1-64 0V106.666667c0-29.44 23.893333-53.333333 53.333334-53.333334h298.666666c29.44 0 53.333333 23.893333 53.333334 53.333334v810.666666c0 29.44-23.893333 53.333333-53.333334 53.333334h-298.666666c-29.44 0-53.333333-23.893333-53.333334-53.333334V725.333333a32 32 0 0 1 64 0v181.333334h277.333334V117.333333h-277.333334zM629.333333 117.333333v789.333334h277.333334V725.333333a32 32 0 0 1 64 0v192c0 29.44-23.893333 53.333333-53.333334 53.333334h-298.666666c-29.44 0-53.333333-23.893333-53.333334-53.333334v-810.666666c0-29.44 23.893333-53.333333 53.333334-53.333334h298.666666c29.44 0 53.333333 23.893333 53.333334 53.333334V298.666667a32 32 0 0 1-64 0V117.333333h-277.333334z" p-id="19093" fill="#07a6f0"></path><path d="M565.333333 512a32 32 0 0 1 32-32l341.333334 0.298667a32 32 0 0 1 0 64l-341.333334-0.298667a32 32 0 0 1-32-32zM458.666667 512a32 32 0 0 1-32 32l-341.333334 0.298667a32 32 0 0 1 0-64l341.333334-0.298667a32 32 0 0 1 32 32z" p-id="19094" fill="#07a6f0"></path><path d="M814.208 387.669333a32 32 0 0 1 45.269333 0l101.845334 101.802667a32 32 0 0 1 0 45.226667l-101.845334 101.845333a32 32 0 0 1-45.226666-45.226667l33.92-33.962666 45.226666-45.226667-79.146666-79.232a32 32 0 0 1 0-45.226667zM209.408 387.84a32 32 0 0 1 0 45.226667l-79.189333 79.232 79.189333 79.189333a32 32 0 0 1-45.226667 45.226667L62.293333 534.912a32 32 0 0 1 0-45.226667L164.138667 387.84a32 32 0 0 1 45.269333 0z" p-id="19095" fill="#07a6f0"></path></svg>